<svg width="28" height="30" viewBox="0 0 28 30" fill="none" xmlns="http://www.w3.org/2000/svg">
<path d="M15.2499 24V18.15C19.5999 17.4 22.8999 13.65 22.8999 9.15C22.8999 4.05 18.8499 0 13.7499 0C8.6499 0 4.5999 4.05 4.5999 9.15C4.5999 13.65 7.8999 17.4 12.2499 18.15V24H0.399902V30H3.3999V27H24.2499V30H27.2499V24H15.2499ZM7.5999 9.15C7.5999 5.7 10.2999 3 13.7499 3C17.1999 3 19.8999 5.7 19.8999 9.15C19.8999 12.6 17.1999 15.3 13.7499 15.3C10.2999 15.3 7.5999 12.6 7.5999 9.15Z" fill="white"/>
<path d="M16.75 7.65002H15.25V4.65002H12.25V10.65H16.75V7.65002Z" fill="white"/>
</svg>
