<svg width="29" height="30" viewBox="0 0 29 30" fill="none" xmlns="http://www.w3.org/2000/svg">
<path d="M23.52 0.75H4.98C2.25 0.75 0 3 0 5.73V24.24C0 27 2.25 29.22 4.98 29.22H23.49C26.25 29.22 28.47 26.97 28.47 24.24V5.73C28.5 3 26.25 0.75 23.52 0.75ZM16.98 20.1C17.34 19.74 17.88 19.74 18.24 20.1C18.6 20.46 18.6 21 18.24 21.36L14.88 24.72C14.7 24.9 14.49 24.99 14.25 24.99C14.01 24.99 13.8 24.9 13.62 24.72L10.26 21.33C9.9 20.97 9.9 20.43 10.26 20.07C10.62 19.71 11.16 19.71 11.52 20.07L13.38 21.93V8.07L11.52 9.9C11.16 10.26 10.62 10.26 10.26 9.9C9.9 9.54 9.9 9 10.26 8.64L13.62 5.28C13.98 4.92 14.52 4.92 14.88 5.28L18.24 8.64C18.6 9 18.6 9.54 18.24 9.9C18.06 10.08 17.85 10.17 17.61 10.17C17.37 10.17 17.16 10.08 16.98 9.9L15.15 8.07V21.96L16.98 20.1Z" fill="white"/>
</svg>
