<svg xmlns="http://www.w3.org/2000/svg" width="36.233" height="21" viewBox="0 0 36.233 21">
  <g id="noun_Motorcycle_36498" transform="translate(0 0.295)">
    <path id="Shape" d="M5.192,21c-.121,0-.245,0-.368-.012a4.855,4.855,0,0,1-4.46-3.147,4.606,4.606,0,0,1,1.158-5.206,7.885,7.885,0,0,1,3.526-.676,2.233,2.233,0,0,1,1.023.149c.178.118.266.25.255.381a.432.432,0,0,1-.3.325,1.229,1.229,0,0,1-.487.074l-.146,0-.138,0c-.071,0-.129,0-.183.006A3.565,3.565,0,0,0,2.5,14.059a3.214,3.214,0,0,0,2.59,5.207l.14,0a3.223,3.223,0,0,0,2.327-1,3.355,3.355,0,0,0,.811-2.442,2.773,2.773,0,0,0-.06-.426c-.012-.063-.025-.127-.035-.19l-.1,0c-.651,0-.7.4-.762.863-.007.053-.014.106-.021.16a2.2,2.2,0,0,1-2.229,2.1c-.09,0-.183,0-.277-.013a2.075,2.075,0,0,1-2.1-2.168c-.045-1.362.818-2.133,2.5-2.229a1.5,1.5,0,0,1-.413,1.119,1.551,1.551,0,0,0-.419,1.084,1.305,1.305,0,0,0,.65.782,1.117,1.117,0,0,1,.033-1.337c.475-.678.893-1.4,1.3-2.108a17.593,17.593,0,0,1,2.245-3.294,3.319,3.319,0,0,0,.956-2.583,6.724,6.724,0,0,1,.393-3.087,2.163,2.163,0,0,1,1.948-1.561,2,2,0,0,1,.245.015,4.138,4.138,0,0,0,.505.034A1.734,1.734,0,0,0,14.54,1.619,1.6,1.6,0,0,1,15.082.95a1.307,1.307,0,0,0,.6-.95c.5,1.079.5,1.079-.567,1.633-.155.081-.288.359-.377.783a3.165,3.165,0,0,0,.158,2.066c.052.066.111.129.169.19.224.237.435.461.232.875C14.205,4.47,14.205,4.47,13.971,3.527c-.518.047-.7.442-.868.791-.028.06-.055.116-.082.17-.378.74-.813,1.465-1.234,2.167-.391.652-.8,1.326-1.148,2-.8,1.539-.569,3.334-.344,5.069l.024.183a2.663,2.663,0,0,0,.163.566,1.38,1.38,0,0,1,.053,1.212c-.537-.05-.669-.412-.808-.8a1.4,1.4,0,0,0-.5-.771,1.37,1.37,0,0,0,.26,1.467c1.005,1.019.565,1.955-.066,2.986a5.1,5.1,0,0,1-1.8,1.8A4.81,4.81,0,0,1,5.192,21ZM9.539,10.686c-.06.179-.119.36-.176.536A7.045,7.045,0,0,1,7.438,14.7C9.3,13.857,10.007,12.508,9.539,10.686Zm2.629-6.513h0a2.617,2.617,0,0,0-1.961,3.3,2.817,2.817,0,0,1,.946-1.659,3.488,3.488,0,0,0,1.015-1.644Z" transform="translate(0 -0.295)" fill="#ff680f"/>
    <path id="Path" d="M2.605,6.905c.91,0,1.535.033,2.155-.012a.772.772,0,0,0,.719-.741c.045-.4-.05-.828-.485-.9C4.033,5.1,3.886,4.267,3.478,3.59,3.168,3.072,3.4,1.916,2.155,2.2c-.168.039-.461-.851.069-1.308C3.272-.01,7.728-.419,8.634.588c.781.867,1.818-.036,2.368.681.484.629-1.184,1.138-.248,2.064.453.448.139.852-.522.874A2.491,2.491,0,0,1,8.055,3.194C6.826,1.686,5.464,1.3,3.887,1.97c2.48-.447,3.55,1.813,5.308,2.753.363.195.307.524.347.826a4.992,4.992,0,0,1-3.456,5.337A4.787,4.787,0,0,1,.314,8.232C.141,7.831-.3,7.268.32,7.013a1.039,1.039,0,0,1,1.489.436A3.063,3.063,0,0,0,4.7,9.329a3.247,3.247,0,0,0,3.2-2.774A3.4,3.4,0,0,0,5.547,2.82c-.424-.114-1.087-.342-1.237.143-.174.562.452.646.92.8a2.358,2.358,0,0,1,1.65,3.019,2.286,2.286,0,0,1-2.79,1.494C3.485,8.131,3.1,7.754,2.605,6.905Z" transform="translate(25.141 9.613)" fill="#ff680f"/>
    <path id="Path-2" data-name="Path" d="M11.067,5.171c1.047,2.508,1.047,2.508,3.672,2.505,1.037,0,2.075-.008,3.112.008.287,0,.687-.041.631.433-.037.317-.352.347-.6.35-1.5.013-3.009.02-4.513.009-.549,0-.959.022-1.155.708a2.585,2.585,0,0,1-2.6,1.852c-1.6.084-3.214.058-4.821.028a2.645,2.645,0,0,1-2.7-2.29,54.25,54.25,0,0,0-2.01-7.3C-.185.839.259.549.742,0c.7,2.742,1.348,5.321,2.022,7.893.577,2.2.7,2.339,2.954,2.3,1.47-.028,2.975.331,4.413-.269l-.052.053c1.632-.608,1.838-1.584.706-3.339-.686-1.062-.686-1.062.2-1.621A1.106,1.106,0,0,1,11.067,5.171Z" transform="translate(11.091 7.395)" fill="#ff680f"/>
    <path id="Path-3" data-name="Path" d="M4.733,3.672c-.883,0-1.772.066-2.647-.015C.608,3.52-.185,2.575.037,1.342.249.163,1.2-.276,2.717.173A21.015,21.015,0,0,1,7.136,2.026c.483.275,1.151.534.967,1.205-.17.625-.849.429-1.345.443-.674.019-1.35,0-2.025,0Z" transform="translate(12.57 5.916)" fill="#ff680f"/>
    <path id="Path-4" data-name="Path" d="M11.092,1.381c-.075.074-.152.214-.224.211C7.928,1.428,5.249,3.152,2.28,2.94,0,2.776-.123,2.766.057.3.641.177,1.087.578,1.53.85A2.76,2.76,0,0,0,5.257.6C6.532-.528,9.869.045,11.092,1.381Z" transform="translate(21.444 8.134)" fill="#ff680f"/>
    <path id="Shape-2" data-name="Shape" d="M5.977,3h0l.034-.045L4.849,2.87c-1.094-.08-2.223-.163-3.335-.233C.485,2.573-.024,2.147,0,1.373.022.681.514.32,1.5.27,1.938.247,2.377.2,2.8.155S3.67.063,4.105.041L4.341.027C4.564.014,4.794,0,5.016,0A1.943,1.943,0,0,1,6.748.732c.563.781.071,1.319-.406,1.84-.114.124-.232.253-.333.383h.019ZM5.189.457c-.7,0-1.161.371-1.18.946s.422.945,1.181.99c.823-.054,1.225-.392,1.2-1.006C6.358.843,5.932.487,5.272.458Z" transform="translate(16 13.705)" fill="#ff680f"/>
    <path id="Path-5" data-name="Path" d="M.339,1.669a1,1,0,0,0-.085-.139C-.312.4.043-.138,1.58.03,2.014.078,2.465,0,2.9.047,3.439.1,4.219-.244,4.413.5c.162.623-.521.931-.991,1.147C2.443,2.1,1.369,2.657.339,1.669Z" transform="translate(22.183 11.832)" fill="#ff680f"/>
    <path id="Path-6" data-name="Path" d="M2.109,1.882c-.029.854.209,1.988-1.019,1.793S.051,2.211,0,1.26C-.034.511.21-.076,1.1.008,2.328.122,2.325.94,2.109,1.882Z" transform="translate(6.654 4.437)" fill="#ff680f"/>
    <path id="Path-7" data-name="Path" d="M2.3.066c.328-.145.569-.047.658.26C3.046.652,1.37,2.224.936,2.211S-.049,2.357,0,1.638C.059.891,1.183.105,2.3.066Z" transform="translate(25.141 12.571)" fill="#ff680f"/>
    <path id="Path-8" data-name="Path" d="M8.114,1.3C7.872.4,5.275.334,3.551.077,1.768-.187.882.256.951.962c-.294.161-.775.31-.851.486-.368.852.252,1.58,2.321,2.008a4.67,4.67,0,0,0,3.157-.075c1.24-.627.17-1.054-.656-1.522C5.986,1.644,8.378,2.281,8.114,1.3Z" transform="translate(13.309 9.613)" fill="#ff680f"/>
    <path id="Path-9" data-name="Path" d="M0,.542A6.589,6.589,0,0,1,3.881.1c.25.029.516.127.555.359.015.088-.175.289-.229.279C2.935.519,1.592.943,0,.542Z" transform="translate(2.957 11.092)" fill="#ff680f"/>
    <path id="Path-10" data-name="Path" d="M2.217,1.516c.025.573-.245.795-.422.668C1.217,1.774.422,1.8.05,1.064c-.2-.394.245-1.19.5-1.046A9.622,9.622,0,0,1,2.217,1.516Z" transform="translate(14.788 2.958)" fill="#ff680f"/>
  </g>
</svg>
