<svg xmlns="http://www.w3.org/2000/svg" width="26.574" height="16.609" viewBox="0 0 26.574 16.609">
  <g id="Group_9_Copy_2" data-name="Group 9 Copy 2" transform="translate(0 0)">
    <g id="noun_Money_2509614" transform="translate(0 0)">
      <path id="Shape" d="M5.294,16.609a.4.4,0,0,1-.281-.115.393.393,0,0,1-.118-.281V15.8a.4.4,0,0,1,.4-.4H24.961a.4.4,0,0,0,.4-.4V5.251a.4.4,0,0,1,.4-.4h.42a.4.4,0,0,1,.4.4V15.342a1.271,1.271,0,0,1-.375.9,1.292,1.292,0,0,1-.9.37h-20ZM2.864,14.2a.4.4,0,0,1-.4-.4v-.411a.4.4,0,0,1,.4-.4H22.532a.4.4,0,0,0,.4-.384V2.841a.4.4,0,0,1,.39-.4h.418a.4.4,0,0,1,.4.4V12.931A1.273,1.273,0,0,1,22.856,14.2H2.864Zm18.043-2.432H.814A.814.814,0,0,1,0,10.973V.791A.815.815,0,0,1,.814,0H20.907a.815.815,0,0,1,.814.791V10.973A.815.815,0,0,1,20.907,11.767ZM9.255,7.151a.4.4,0,0,0-.333.177l-.13.188v.011a.395.395,0,0,0,.1.554,3.438,3.438,0,0,0,1.085.538l.062.016V9.23a.4.4,0,0,0,.4.392h.185a.4.4,0,0,0,.4-.4V8.608l.057-.016A1.585,1.585,0,0,0,12.273,7a1.747,1.747,0,0,0-.136-.7,1.579,1.579,0,0,0-.358-.509,3.6,3.6,0,0,0-.947-.592c-.521-.253-.841-.427-.841-.79a.516.516,0,0,1,.516-.542.52.52,0,0,1,.067,0,1.262,1.262,0,0,1,.743.3.4.4,0,0,0,.247.085.4.4,0,0,0,.295-.128l.17-.188a.39.39,0,0,0-.016-.538l-.022-.022a1.819,1.819,0,0,0-.914-.471l-.065-.013v-.6a.4.4,0,0,0-.4-.4h-.171a.4.4,0,0,0-.4.4v.619l-.057.016A1.532,1.532,0,0,0,8.859,4.45a1.519,1.519,0,0,0,.127.627,1.463,1.463,0,0,0,.344.447,3.6,3.6,0,0,0,.89.565c.578.293.933.5.933.952a.607.607,0,0,1-.114.39.683.683,0,0,1-.559.2,1.985,1.985,0,0,1-.99-.407A.4.4,0,0,0,9.255,7.151Z" fill="#ff680f"/>
    </g>
  </g>
</svg>
