<svg xmlns="http://www.w3.org/2000/svg" width="23.702" height="23.104" viewBox="0 0 23.702 23.104">
  <g id="Group" transform="translate(0 0)">
    <g id="Group-2" data-name="Group">
      <path id="Path" d="M18.591,7.5a.987.987,0,0,0,1.323.556,1.007,1.007,0,0,0,.549-1.338A10.58,10.58,0,0,0,10.631,0,10.7,10.7,0,0,0,0,10.757,10.7,10.7,0,0,0,10.631,21.514a10.278,10.278,0,0,0,3.494-.606,1.036,1.036,0,0,0,.624-1.313,1,1,0,0,0-1.3-.631,8.317,8.317,0,0,1-2.845.48,8.712,8.712,0,0,1,0-17.423A8.632,8.632,0,0,1,18.591,7.5Z" fill="#ff680f"/>
      <path id="Path-2" data-name="Path" d="M5.979,6.338a2.881,2.881,0,0,0-2.171-.985H2.934a.977.977,0,0,1-.724-.328,1.034,1.034,0,0,1-.25-.758,1.01,1.01,0,0,1,1.023-.884H4.007a.6.6,0,0,1,.6.505.405.405,0,0,0,.4.3H6.178a.354.354,0,0,0,.3-.152.349.349,0,0,0,.1-.3A2.59,2.59,0,0,0,4.332,1.414V.4a.4.4,0,0,0-.4-.4H2.785a.4.4,0,0,0-.4.4V1.439A2.954,2.954,0,0,0,.015,4.671,3.045,3.045,0,0,0,3.059,7.348h.749a1.02,1.02,0,0,1,.724.328.939.939,0,0,1,.25.758,1.01,1.01,0,0,1-1.023.884H2.735a.6.6,0,0,1-.6-.505.405.405,0,0,0-.4-.3H.564a.354.354,0,0,0-.3.152.444.444,0,0,0-.1.3A2.59,2.59,0,0,0,2.41,11.287V12.3a.4.4,0,0,0,.4.4H3.957a.4.4,0,0,0,.4-.4V11.262A2.987,2.987,0,0,0,5.979,6.338Z" transform="translate(16.955 10.403)" fill="#ff680f"/>
      <path id="Path-3" data-name="Path" d="M3.441,1.01v4.9l-2.72.833A1.008,1.008,0,0,0,.048,8a.99.99,0,0,0,.973.732,1.239,1.239,0,0,0,.3-.051L4.764,7.651a1.029,1.029,0,0,0,.724-.985V1.01A1.007,1.007,0,0,0,4.49,0,1.018,1.018,0,0,0,3.441,1.01Z" transform="translate(6.166 4.091)" fill="#ff680f"/>
    </g>
  </g>
</svg>
