<svg width="15" height="13" viewBox="0 0 15 13" fill="none" xmlns="http://www.w3.org/2000/svg">
<g clip-path="url(#clip0_86_32759)">
<g opacity="0.656">
<path d="M14.942 6.62298C14.9096 6.71043 14.8588 6.7899 14.793 6.85598L9.60695 12.025C9.48115 12.1443 9.31374 12.2099 9.14033 12.2078C8.96692 12.2057 8.80118 12.136 8.67836 12.0135C8.55554 11.8911 8.48531 11.7256 8.48262 11.5522C8.47993 11.3788 8.54499 11.2112 8.66395 11.085L12.753 7.00998H0.651953C0.566594 7.00998 0.482071 6.99317 0.403209 6.9605C0.324347 6.92783 0.252692 6.87996 0.192334 6.8196C0.131976 6.75924 0.084097 6.68758 0.0514314 6.60872C0.0187659 6.52986 0.00195312 6.44534 0.00195312 6.35998C0.00195312 6.27462 0.0187659 6.19009 0.0514314 6.11123C0.084097 6.03237 0.131976 5.96072 0.192334 5.90036C0.252692 5.84 0.324347 5.79212 0.403209 5.75946C0.482071 5.72679 0.566594 5.70998 0.651953 5.70998H12.752L8.66395 1.63398C8.54499 1.50779 8.47993 1.34018 8.48262 1.16678C8.48531 0.993374 8.55554 0.827859 8.67836 0.705426C8.80118 0.582992 8.96692 0.513297 9.14033 0.511159C9.31374 0.509021 9.48115 0.574609 9.60695 0.693977L14.793 5.86298C14.8585 5.92965 14.9093 6.00938 14.942 6.09698C14.9796 6.17958 14.9994 6.2692 15 6.35998C14.9997 6.45079 14.9799 6.54048 14.942 6.62298Z" fill="#B1B1B1"/>
</g>
</g>
<defs>
<clipPath id="clip0_86_32759">
<rect width="15" height="11.719" fill="white" transform="translate(0 0.5)"/>
</clipPath>
</defs>
</svg>
