<svg width="28" height="28" viewBox="0 0 28 28" fill="none" xmlns="http://www.w3.org/2000/svg">
<path d="M27.75 14C27.75 13.9976 27.7497 13.9952 27.7497 13.9928C27.7488 12.4691 27.492 11.006 27.0258 9.6398L27.0411 9.6335L26.9331 9.3662L26.6256 8.6051L26.4792 8.2427L26.4645 8.2487C25.9035 7.0589 25.1742 5.9648 24.3066 4.9964L24.321 4.982L23.8548 4.5158L23.7303 4.3913L23.2605 3.9215L23.2458 3.9362C22.3347 3.1214 21.3126 2.4287 20.2047 1.883L20.2122 1.8653L19.6629 1.6322L19.3602 1.5035L18.8316 1.2791L18.8244 1.2962C17.6199 0.8624 16.3359 0.5951 15 0.5219V0.5H14.25H13.5V0.5219C12.246 0.5906 11.0388 0.833 9.8988 1.2209L9.891 1.2014L9.2547 1.4585L8.9436 1.5842L8.5002 1.7633L8.5074 1.7813C7.3176 2.3414 6.2232 3.0698 5.2542 3.9365L5.2395 3.9218L4.7697 4.3916L4.6452 4.5161L4.179 4.9823L4.1934 4.9967C3.3777 5.9072 2.6844 6.929 2.1381 8.0366L2.1231 8.0303L1.9473 8.4443L1.7034 9.0185L1.5366 9.4112L1.5498 9.4166C1.0341 10.8458 0.7512 12.386 0.7503 13.9928C0.7503 13.9952 0.75 13.9976 0.75 14C0.75 15.5216 1.0056 16.9826 1.4697 18.3473L1.4589 18.3518L1.5351 18.5402C1.6536 18.872 1.7862 19.1969 1.9293 19.5161L2.0208 19.7426L2.0301 19.739C2.5905 20.9303 3.3195 22.0259 4.1868 22.9958L4.179 23.0036L4.3509 23.1755L5.0751 23.8997L5.2395 24.0641L5.2467 24.0569C6.1581 24.8735 7.1811 25.5674 8.2902 26.114L8.2875 26.12L8.3733 26.1566C8.7753 26.3513 9.1881 26.5271 9.6108 26.6819L9.6681 26.7062L9.6699 26.702C10.8762 27.137 12.162 27.4052 13.4997 27.4784V27.4859H13.6818C13.8705 27.4934 14.0595 27.5 14.25 27.5C14.4405 27.5 14.6295 27.4934 14.8179 27.4856H15V27.4781C16.2561 27.4094 17.4648 27.1664 18.6063 26.7773L18.609 26.7842L18.7281 26.7362C19.1109 26.6015 19.485 26.4497 19.851 26.2826L20.0001 26.2223L19.9977 26.2163C21.1887 25.655 22.284 24.9251 23.2533 24.0569L23.2605 24.0641L23.4249 23.8997L24.1491 23.1755L24.321 23.0036L24.3132 22.9958C25.1289 22.0838 25.8222 21.0608 26.3682 19.9514L26.3772 19.9553L26.4492 19.7861C26.607 19.4543 26.7504 19.1144 26.8812 18.7682L26.9634 18.5747L26.955 18.5711C27.4686 17.1434 27.75 15.6047 27.75 14ZM9.3975 21.275C9.0231 21.275 8.6928 21.0998 8.4726 20.831C8.3034 20.624 8.1975 20.3633 8.1975 20.075C8.1975 19.4123 8.7348 18.875 9.3975 18.875C9.6858 18.875 9.9465 18.9809 10.1535 19.1501C10.4223 19.3703 10.5975 19.7006 10.5975 20.075C10.5975 20.7377 10.0602 21.275 9.3975 21.275ZM15 21.0047C14.7939 21.1712 14.5353 21.275 14.25 21.275C13.9647 21.275 13.7061 21.1712 13.5 21.0047C13.2276 20.7848 13.05 20.4521 13.05 20.075C13.05 19.6976 13.2276 19.3652 13.5 19.1453C13.7061 18.9788 13.9647 18.875 14.25 18.875C14.5353 18.875 14.7939 18.9788 15 19.1453C15.2724 19.3652 15.45 19.6979 15.45 20.075C15.45 20.4524 15.2724 20.7848 15 21.0047ZM20.0274 20.831C19.8072 21.0998 19.4772 21.275 19.1025 21.275C18.4398 21.275 17.9025 20.7377 17.9025 20.075C17.9025 19.7006 18.0777 19.3703 18.3465 19.1501C18.5535 18.9809 18.8142 18.875 19.1025 18.875C19.7652 18.875 20.3025 19.4123 20.3025 20.075C20.3025 20.3633 20.1969 20.624 20.0274 20.831ZM17.2881 13.9928C17.2884 13.9724 17.2911 13.9526 17.2911 13.9322C17.2911 13.8917 17.2866 13.8521 17.2851 13.8119L20.5197 7.7447L15 10.6877L14.7909 10.7993L14.5827 10.9103C14.4732 10.8983 14.3625 10.8914 14.25 10.8914C14.1036 10.8914 13.9605 10.9052 13.8195 10.9253C13.7109 10.9406 13.6044 10.9619 13.5 10.9883C13.1997 11.0645 12.918 11.1851 12.6606 11.3432C12.5823 11.3915 12.5064 11.4431 12.4329 11.498C12.1908 11.6789 11.9772 11.8943 11.7987 12.1379C11.7327 12.2279 11.6709 12.3212 11.6148 12.4187C11.4216 12.7541 11.2917 13.1294 11.2383 13.5296C11.2209 13.6619 11.2086 13.7957 11.2086 13.9325C11.2086 13.9529 11.2113 13.9727 11.2116 13.9931H2.5002C2.5011 12.629 2.7366 11.3204 3.165 10.1024L4.665 10.739C4.8273 10.262 5.0238 9.8009 5.2524 9.3587L3.7527 8.7221C4.2066 7.8209 4.7727 6.9866 5.4333 6.2369L6.585 7.3886C6.9123 7.0097 7.2666 6.6554 7.6461 6.3287L6.4944 5.177C7.2954 4.4723 8.1912 3.8729 9.1635 3.4055L9.7746 4.9178C10.2207 4.6976 10.6851 4.5092 11.1651 4.3556L10.5555 2.8466C11.4906 2.537 12.4773 2.3414 13.5 2.2769V3.9062C13.7478 3.8879 14.7522 3.8879 15 3.9062V2.2769C16.0938 2.3459 17.1465 2.5643 18.1389 2.9123L17.5023 4.4123C17.9796 4.574 18.4407 4.7702 18.8829 4.9985L19.5195 3.4988C20.421 3.9521 21.2556 4.5173 22.0059 5.1773L20.8542 6.329C21.2334 6.6557 21.588 7.01 21.9153 7.3889L23.067 6.2372C23.7726 7.0379 24.3729 7.9334 24.8415 8.9054L23.3289 9.5165C23.5497 9.9623 23.7384 10.4267 23.8923 10.9067L25.4013 10.2971C25.7874 11.4596 25.9995 12.7016 26.0001 13.9934H17.2881V13.9928Z" fill="white"/>
</svg>
