<svg width="36" height="35" viewBox="0 0 36 35" fill="none" xmlns="http://www.w3.org/2000/svg">
<g clip-path="url(#clip0_86_33643)">
<path d="M8.30461 10.6219L8.15663 10.3589L7.9838 10.0516L3.93262 11.7097C3.99926 11.8007 4.07017 11.8974 4.14584 12.0002L4.32889 12.2487C4.3977 12.342 4.46917 12.4388 4.54316 12.5388L8.47744 10.9292L8.30461 10.6219Z" fill="white"/>
<path d="M1.6393 6.08294L13.4396 1.28521C13.6031 1.21892 13.682 1.03265 13.6158 0.869127C13.5495 0.705607 13.3632 0.626857 13.1997 0.692937L1.39934 5.49067C1.23582 5.55696 1.15693 5.74323 1.22315 5.90675C1.27355 6.03093 1.39311 6.10639 1.51939 6.10639C1.55936 6.10639 1.60003 6.09883 1.6393 6.08294Z" fill="white"/>
<path d="M14.8142 4.09453C15.1813 3.92373 15.1568 3.70414 14.9948 3.34889C14.9068 3.15569 14.5187 2.16239 14.4235 1.92509C14.3283 1.68779 14.0427 1.54541 13.7095 1.64033C13.3762 1.73525 2.63211 6.16716 2.10844 6.357C1.58477 6.54684 1.42328 6.94255 1.54564 7.1865C1.61298 7.32076 1.97887 8.23755 2.21687 8.71215C2.45487 9.18675 2.88334 8.99691 3.26414 8.85453C3.26414 8.85453 13.888 4.52545 14.8142 4.09453Z" fill="white"/>
<path d="M18.034 15.7324L15.7075 16.6965L16.0021 17.3842L18.2151 16.4672C18.2719 16.3584 18.0595 15.9061 18.0417 15.7754C18.0402 15.7644 18.0374 15.7493 18.034 15.7324Z" fill="white"/>
<path d="M19.4373 12.2989L19.3515 12.5877C19.3178 12.7015 19.2844 12.8141 19.2515 12.9251L21.828 13.9927L21.9544 13.6663L22.0627 13.3867L22.1891 13.0603L19.5376 11.9615C19.5039 12.0748 19.4704 12.1873 19.4373 12.2989Z" fill="white"/>
<path d="M19.0664 13.5518L18.9814 13.8411C18.9474 13.9574 18.9145 14.0701 18.8828 14.179L21.3585 15.2049L21.4849 14.8784L21.5931 14.5989L21.7196 14.2724L19.1658 13.2142C19.1319 13.329 19.0988 13.4417 19.0664 13.5518Z" fill="white"/>
<path d="M17.5072 13.8411L17.4223 13.5518C17.3898 13.4416 17.3567 13.329 17.3228 13.2142L14.769 14.2724L14.8955 14.5989L15.0037 14.8784L15.1301 15.2049L17.6058 14.179C17.5741 14.0701 17.5412 13.9574 17.5072 13.8411Z" fill="white"/>
<path d="M18.7018 14.8072L18.6199 15.0976C18.5838 15.2269 18.5525 15.3412 18.5269 15.438L20.8892 16.4169L21.0156 16.0904L21.1239 15.8109L21.2503 15.4844L18.7989 14.4686C18.7646 14.5876 18.732 14.7011 18.7018 14.8072Z" fill="white"/>
<path d="M17.137 12.5877L17.0512 12.2989C17.018 12.1874 16.9845 12.0749 16.9508 11.9617L14.2993 13.0604L14.4257 13.3869L14.534 13.6664L14.6604 13.9929L17.2369 12.9252C17.2041 12.8142 17.1707 12.7016 17.137 12.5877Z" fill="white"/>
<path d="M17.8687 15.0976L17.7868 14.8072C17.7566 14.7011 17.7241 14.5876 17.6897 14.4686L15.2383 15.4844L15.3647 15.8109L15.4729 16.0904L15.5993 16.4169L17.9617 15.438C17.9361 15.3412 17.9048 15.2269 17.8687 15.0976Z" fill="white"/>
<path d="M8.94588 11.7624L8.7979 11.4994L8.62507 11.1921L4.72656 12.7869C4.79656 12.8814 4.8681 12.978 4.94139 13.0768L5.12549 13.3249C5.19619 13.4202 5.2678 13.5166 5.34067 13.6146L9.11864 12.0697L8.94588 11.7624Z" fill="white"/>
<path d="M18.4467 15.7753C18.4289 15.906 18.2166 16.3582 18.2733 16.4671L20.4862 17.3841L20.7809 16.6963L18.4544 15.7323C18.451 15.7492 18.4482 15.7644 18.4467 15.7753Z" fill="white"/>
<path d="M27.0488 12.64L26.9009 12.9031L26.728 13.2103L30.0491 14.6267C30.1213 14.5299 30.1934 14.4333 30.2649 14.3373L30.4496 14.0894C30.5221 13.992 30.5939 13.8955 30.6651 13.7999L27.2217 12.3328L27.0488 12.64Z" fill="white"/>
<path d="M27.6904 11.4994L27.5425 11.7624L27.3696 12.0697L31.1476 13.6146C31.2205 13.5165 31.2921 13.4201 31.3628 13.3249L31.5469 13.0768C31.6202 12.978 31.6918 12.8814 31.7618 12.7869L27.8633 11.1921L27.6904 11.4994Z" fill="white"/>
<path d="M9.58749 12.9031L9.43951 12.64L9.26668 12.3328L5.82324 13.7999C5.89443 13.8956 5.96625 13.992 6.03877 14.0894L6.22343 14.3373C6.29497 14.4333 6.36693 14.5299 6.43924 14.6267L9.76032 13.2103L9.58749 12.9031Z" fill="white"/>
<path d="M26.0811 15.0521L25.9263 15.3123L25.7456 15.6163L28.1283 16.6036C28.1996 16.5085 28.2719 16.4118 28.3448 16.3144L28.5301 16.0668C28.6017 15.9712 28.6739 15.8746 28.7464 15.7776L26.2619 14.748L26.0811 15.0521Z" fill="white"/>
<path d="M26.7525 13.9238L26.5977 14.184L26.417 14.488L29.2473 15.7011C29.3192 15.6049 29.3912 15.5085 29.4635 15.4118L29.6485 15.164C29.7206 15.0675 29.7926 14.971 29.8645 14.8746L26.9332 13.6198L26.7525 13.9238Z" fill="white"/>
<path d="M35.089 5.49067L23.2886 0.692937C23.1251 0.626857 22.9389 0.705607 22.8726 0.869127C22.8063 1.03265 22.8852 1.21892 23.0488 1.28521L34.8491 6.08294C34.8884 6.09883 34.929 6.10639 34.9689 6.10639C35.0953 6.10639 35.2148 6.031 35.2652 5.90675C35.3314 5.7433 35.2525 5.55696 35.089 5.49067Z" fill="white"/>
<path d="M25.4102 16.1805L25.2554 16.4408L25.0747 16.7447L27.3239 17.6768C27.3942 17.5831 27.4666 17.4867 27.5407 17.3877L27.7263 17.1403C27.7971 17.0458 27.8695 16.9491 27.943 16.8512L25.5909 15.8766L25.4102 16.1805Z" fill="white"/>
<path d="M34.3802 6.357C33.8565 6.16716 23.1124 1.73525 22.7792 1.64033C22.446 1.54541 22.1603 1.68779 22.0651 1.92509C21.9699 2.16239 21.582 3.15569 21.4938 3.34889C21.3319 3.70421 21.3074 3.92373 21.6744 4.09453C22.6006 4.52545 33.2245 8.85453 33.2245 8.85453C33.6053 8.99691 34.0337 9.18675 34.2717 8.71215C34.5097 8.23755 34.8757 7.32076 34.9429 7.1865C35.0654 6.94255 34.9038 6.54684 34.3802 6.357Z" fill="white"/>
<path d="M24.1152 5.63932C22.8519 4.60108 20.6967 3.91711 18.2499 3.91711C15.8107 3.91711 13.6611 4.59688 12.3963 5.62973L3.13855 9.43752C3.12616 9.53181 3.14366 10.1255 3.15367 10.2451L3.17362 10.2932L11.3843 6.90814C11.3326 7.03085 11.2917 7.15587 11.2619 7.28278L3.23151 10.5936L3.36549 10.9169L3.53993 11.169C3.59803 11.2502 3.66901 11.3485 3.75049 11.4606L11.2814 8.35609C11.3347 8.55188 11.4145 8.74284 11.5192 8.92785L10.7942 9.20344L12.1084 13.0698L12.0003 13.1201L12.2826 13.9603L11.8445 13.1878L11.6471 13.2724L9.73255 9.67573L8.62046 10.1609L10.5135 13.7583L10.3152 13.8433L11.0371 15.1614L11.1865 15.0928L13.6663 19.4391L13.3759 19.552L13.8274 20.6444C13.718 20.722 13.6108 20.8025 13.5058 20.8856L12.8832 19.1562L11.1565 19.9029C11.5998 20.8362 11.2032 21.5129 11.0632 22.3296C10.9477 23.0032 11.3083 23.3115 11.4382 23.3989C10.9003 24.4459 10.5966 25.6331 10.5966 26.8913C10.5966 31.1181 14.0231 34.5446 18.2499 34.5446C22.4767 34.5446 25.9033 31.1181 25.9033 26.8913C25.9033 25.6307 25.5983 24.4415 25.0585 23.3929C25.1951 23.2979 25.5378 22.9885 25.4248 22.3296C25.2848 21.5129 24.8881 20.8363 25.3315 19.9029L23.6048 19.1562L22.9849 20.8782C22.8799 20.7954 22.7726 20.7153 22.6632 20.638L23.1121 19.552L22.8217 19.4391L25.3015 15.0928L25.4508 15.1614L26.1728 13.8433L25.9745 13.7583L27.8675 10.1609L26.7554 9.67573L24.8409 13.2724L24.6435 13.1878L24.2054 13.9603L24.4877 13.1201L24.3796 13.0698L25.6938 9.20344L24.9785 8.93156C25.0835 8.74676 25.1637 8.55601 25.2173 8.3605L32.7375 11.4606C32.819 11.3485 32.8899 11.2502 32.948 11.169L33.1225 10.9169L33.2565 10.5936L25.2393 7.28824C25.2099 7.16147 25.1692 7.03659 25.1179 6.91402L33.3144 10.2932L33.3343 10.2451C33.3443 10.1255 33.3618 9.53181 33.3494 9.43752L24.1152 5.63932ZM18.2499 6.44124C18.9899 6.44124 19.5898 7.04114 19.5898 7.78111C19.5898 8.52108 18.9899 9.12098 18.2499 9.12098C17.51 9.12098 16.9101 8.52108 16.9101 7.78111C16.9101 7.04114 17.51 6.44124 18.2499 6.44124ZM12.3369 14.5645L12.4658 14.5053L12.4659 14.5058L12.5777 14.4573L13.0524 15.7904L12.3369 14.5645ZM18.2499 29.9946C16.5388 29.9946 15.1466 28.6025 15.1466 26.8913C15.1466 25.1801 16.5388 23.7879 18.2499 23.7879C19.9612 23.7879 21.3533 25.1801 21.3533 26.8913C21.3533 28.6025 19.9612 29.9946 18.2499 29.9946ZM22.9789 12.4186L22.4791 13.836L22.7481 13.9529L20.9887 18.7265L20.4908 18.5328L20.1122 19.4667C20.0039 19.4396 19.8949 19.4145 19.7848 19.3921L20.3848 17.8263L18.5415 17.0563L18.244 18.1054L17.9465 17.0563L16.1032 17.8263L16.704 19.3943C16.594 19.4168 16.4851 19.4421 16.3769 19.4693L15.9972 18.5328L15.4992 18.7264L13.7398 13.9528L14.0089 13.836L13.509 12.4185L13.226 12.5501L12.2901 9.84296C12.4726 10.0012 12.6754 10.1518 12.8967 10.2934L12.9566 10.4793L13.1021 10.4192C13.211 10.483 13.3238 10.5449 13.4402 10.6045L13.0489 10.7654L13.1567 11.0996L13.249 11.3858L13.3568 11.7199L14.7661 11.1403C14.9174 11.1876 15.0721 11.2318 15.2301 11.273L13.8297 11.8483L13.9561 12.1748L14.0644 12.4543L14.1908 12.7808L17.0846 11.5921C17.4636 11.6267 17.8528 11.645 18.2497 11.645C18.6433 11.645 19.0292 11.6271 19.4052 11.593L22.2969 12.7808L22.4233 12.4543L22.5315 12.1748L22.6579 11.8483L21.2621 11.2749C21.4202 11.2338 21.5752 11.1896 21.7266 11.1424L23.1308 11.7199L23.2386 11.3858L23.3309 11.0996L23.4387 10.7654L23.054 10.6072C23.1706 10.5476 23.2835 10.4858 23.3924 10.4221L23.531 10.4793L23.5878 10.3031C23.808 10.1631 24.0102 10.0143 24.1924 9.85787L23.2617 12.5501L22.9789 12.4186ZM23.4356 15.7904L23.9104 14.4572L24.0221 14.5057L24.0224 14.5052L24.1512 14.5645L23.4356 15.7904Z" fill="white"/>
<path d="M28.332 10.3589L28.1841 10.6219L28.0112 10.9292L31.9455 12.5388C32.0194 12.4388 32.091 12.342 32.1598 12.2487L32.3428 12.0002C32.4185 11.8973 32.4894 11.8007 32.5561 11.7097L28.5049 10.0516L28.332 10.3589Z" fill="white"/>
<path d="M11.233 16.4408L11.0782 16.1805L10.8975 15.8766L8.54541 16.8512C8.61877 16.9491 8.69122 17.0458 8.76206 17.1403L8.94763 17.3877C9.02183 17.4867 9.09414 17.5831 9.16442 17.6768L11.4137 16.7447L11.233 16.4408Z" fill="white"/>
<path d="M11.9039 17.5692L11.7491 17.3089L11.5684 17.005L9.3501 17.9242C9.42563 18.0248 9.49801 18.1211 9.56717 18.2131L9.75309 18.4604C9.83198 18.5653 9.90429 18.6613 9.97051 18.7491L12.0846 17.8731L11.9039 17.5692Z" fill="white"/>
<path d="M10.5618 15.3124L10.407 15.0521L10.2263 14.7482L7.7417 15.7777C7.81422 15.8747 7.88646 15.9713 7.958 16.067L8.14329 16.3146C8.21616 16.4119 8.28854 16.5086 8.3598 16.6037L10.7425 15.6164L10.5618 15.3124Z" fill="white"/>
<path d="M9.89078 14.184L9.73601 13.9237L9.55527 13.6198L6.62402 14.8746C6.69591 14.971 6.76794 15.0675 6.83997 15.164L7.02498 15.4118C7.09722 15.5084 7.16925 15.6049 7.24114 15.7011L10.0715 14.488L9.89078 14.184Z" fill="white"/>
<path d="M12.2392 18.1335L10.1567 18.9964C10.2671 19.1425 10.5113 19.6039 10.5438 19.6458L12.5882 18.7987L12.2392 18.1335Z" fill="white"/>
<path d="M18.2502 24.2079C16.7706 24.2079 15.5669 25.4116 15.5669 26.8913C15.5669 28.3709 16.7706 29.5746 18.2502 29.5746C19.7299 29.5746 20.9336 28.3709 20.9336 26.8913C20.9336 25.4116 19.7298 24.2079 18.2502 24.2079Z" fill="white"/>
<path d="M23.9004 18.7988L25.9447 19.6459C25.9772 19.6039 26.2215 19.1425 26.3318 18.9965L24.2493 18.1335L23.9004 18.7988Z" fill="white"/>
<path d="M24.7393 17.309L24.5845 17.5693L24.4038 17.8732L26.5179 18.7492C26.5841 18.6613 26.6563 18.5654 26.7353 18.4605L26.9212 18.2132C26.9904 18.1212 27.0628 18.0248 27.1383 17.9243L24.9201 17.0051L24.7393 17.309Z" fill="white"/>
</g>
<defs>
<clipPath id="clip0_86_33643">
<rect width="35" height="35" fill="white" transform="translate(0.75)"/>
</clipPath>
</defs>
</svg>
