<svg width="43" height="22" viewBox="0 0 43 22" fill="none" xmlns="http://www.w3.org/2000/svg">
<g clip-path="url(#clip0_86_32706)">
<path d="M17.9401 2.60037C17.9401 2.60037 17.5137 2.57702 17.4424 2.94201C17.3711 3.307 17.6046 3.3795 17.6046 3.3795L18.4292 3.85878C18.4292 3.85878 18.3665 3.46061 18.6308 3.29225C18.895 3.12389 18.5288 3.89688 18.5288 3.89688C18.751 3.71078 18.8996 3.45151 18.9478 3.16567C18.9478 2.89899 17.8086 2.44429 17.8086 2.44429C17.6821 2.44035 17.5579 2.47938 17.4563 2.55503C17.3548 2.63069 17.2819 2.7385 17.2495 2.8609C17.2514 2.74349 17.2922 2.63004 17.3656 2.53839C17.4391 2.44674 17.5408 2.38208 17.655 2.35458L17.5137 2.23169H17.0774L16.9447 2.44552L16.7517 2.34352C16.6281 2.51572 16.5576 2.72036 16.549 2.93218C16.5391 3.2775 17.0405 3.48027 17.0405 3.48027L17.0602 3.64249L17.639 3.61177C17.639 3.61177 17.2863 3.36844 17.3011 3.11037C17.3027 3.03238 17.3215 2.9557 17.3561 2.88577C17.3906 2.81584 17.4402 2.75437 17.5011 2.70571C17.5621 2.65704 17.633 2.62238 17.7089 2.60418C17.7848 2.58598 17.8637 2.58467 17.9401 2.60037Z" fill="#FF680F"/>
<mask id="mask0_86_32706" style="mask-type:luminance" maskUnits="userSpaceOnUse" x="12" y="0" width="7" height="5">
<path d="M12.6187 0H18.4818V4.66991H12.6187V0Z" fill="white"/>
</mask>
<g mask="url(#mask0_86_32706)">
<path d="M15.4673 1.94661C15.4673 1.94661 15.5816 1.74384 15.7413 1.72295C15.8553 1.71826 15.9695 1.72609 16.0818 1.7463C16.314 0.999112 16.5573 0.851641 16.7306 0.781593C16.9039 0.711544 17.3021 0.233493 17.7482 0.0356368C18.1943 -0.16222 18.5593 0.500169 18.4683 1.12446C18.3774 1.74875 17.7605 1.67256 17.4102 1.49314C17.06 1.31372 16.8756 1.07899 16.6397 1.20803C16.4735 1.36269 16.3571 1.56334 16.3054 1.78439H16.3239L16.9174 2.11989L16.8486 2.27228L16.5512 2.19854L16.2391 2.67782L16.2845 3.119C16.2845 3.119 16.6421 3.54052 16.8486 3.53069C16.6963 3.57732 16.5344 3.58289 16.3792 3.54685C16.2241 3.51082 16.0812 3.43444 15.965 3.32546C15.8674 3.18437 15.7549 3.05418 15.6295 2.93712C14.7956 3.31898 14.0793 3.91732 13.5551 4.6699L13.4789 4.48311C13.426 4.34936 13.3411 4.23066 13.2316 4.13744C13.1221 4.04422 12.9914 3.97935 12.8509 3.94853L12.6187 3.89691V3.37831L15.4673 1.94661Z" fill="#FF680F"/>
</g>
<path d="M35.7247 21.4336C34.5954 21.4326 33.4917 21.0969 32.5531 20.4689C31.6145 19.8409 30.8832 18.9487 30.4514 17.9052C30.0197 16.8616 29.907 15.7136 30.1276 14.606C30.3481 13.4984 30.8921 12.4811 31.6906 11.6825C32.4891 10.884 33.5065 10.3401 34.614 10.1195C35.7216 9.89896 36.8697 10.0117 37.9132 10.4434C38.9568 10.8751 39.8489 11.6065 40.4769 12.5451C41.105 13.4836 41.4407 14.5873 41.4416 15.7166C41.4413 17.2328 40.8389 18.6867 39.7668 19.7588C38.6948 20.8308 37.2408 21.4333 35.7247 21.4336ZM35.7247 11.9709C34.9837 11.9716 34.2596 12.192 33.6439 12.6042C33.0281 13.0165 32.5484 13.602 32.2654 14.2868C31.9824 14.9716 31.9088 15.7249 32.0539 16.4516C32.199 17.1782 32.5563 17.8455 33.0806 18.3691C33.6049 18.8927 34.2727 19.2491 34.9995 19.3933C35.7263 19.5374 36.4796 19.4628 37.164 19.1789C37.8484 18.895 38.4333 18.4146 38.8447 17.7983C39.2562 17.182 39.4756 16.4576 39.4754 15.7166C39.4737 14.7228 39.0779 13.7703 38.3747 13.068C37.6715 12.3658 36.7185 11.9712 35.7247 11.9709Z" fill="#FF680F"/>
<path d="M35.7237 13.34C36.1935 13.34 36.6528 13.4793 37.0434 13.7403C37.4341 14.0013 37.7385 14.3723 37.9183 14.8064C38.0981 15.2405 38.1452 15.7181 38.0535 16.1789C37.9619 16.6397 37.7356 17.063 37.4034 17.3952C37.0712 17.7274 36.6479 17.9537 36.1871 18.0453C35.7263 18.137 35.2487 18.09 34.8146 17.9102C34.3805 17.7304 34.0095 17.4259 33.7485 17.0352C33.4875 16.6446 33.3481 16.1853 33.3481 15.7155C33.3481 15.0854 33.5984 14.4812 34.0439 14.0357C34.4894 13.5902 35.0936 13.34 35.7237 13.34Z" fill="#FF680F"/>
<path d="M12.4771 3.44104C12.4773 3.47336 12.4678 3.50501 12.45 3.53198L11.36 5.15539L11.1363 5.52407L11.0552 6.27494L10.3646 7.29003C9.93565 7.26837 9.50855 7.35946 9.1258 7.55425C9.05768 7.61001 8.99806 7.67543 8.94884 7.74842C8.91886 7.79962 8.87621 7.84223 8.82498 7.87215C8.77375 7.90207 8.71567 7.91829 8.65635 7.91924H8.21271C7.63144 7.33655 7.27828 6.56482 7.21729 5.74404C7.68251 6.28437 8.04712 6.90371 8.29382 7.57268C8.14519 6.88396 7.82856 6.24269 7.37213 5.70595C7.35576 5.6894 7.34309 5.66957 7.33495 5.64777C7.3268 5.62597 7.32337 5.60269 7.32488 5.57947C7.32639 5.55624 7.33281 5.5336 7.3437 5.51304C7.3546 5.49247 7.36974 5.47445 7.38811 5.46016L10.9139 2.79955L10.9802 3.34765C10.998 3.49517 10.9853 3.64477 10.943 3.78721C10.9008 3.92966 10.8298 4.06195 10.7345 4.17594L8.93778 6.31304L10.8279 4.27425C10.9371 4.15619 11.0187 4.01537 11.067 3.86194C11.1152 3.70851 11.1288 3.54629 11.1068 3.38697C11.0791 3.1862 11.108 2.98166 11.1903 2.79644C11.2726 2.61122 11.405 2.45268 11.5726 2.3387L12.2227 1.89629C12.2472 1.87939 12.2758 1.86955 12.3055 1.86783C12.3351 1.8661 12.3647 1.87257 12.391 1.88652C12.4172 1.90047 12.4392 1.92137 12.4543 1.94694C12.4695 1.9725 12.4774 2.00174 12.4771 2.03147V3.44104Z" fill="#FF680F"/>
<path d="M12.4775 4.08008C12.6463 4.10422 12.8045 4.17705 12.9326 4.28967C13.0608 4.4023 13.1533 4.54982 13.1989 4.7142L13.2284 4.81743L12.6397 5.55479H12.4775L8.05336 12.744L12.3177 5.57568L7.88745 12.61C7.8185 12.5354 7.73296 12.4781 7.63774 12.4426C7.54253 12.4072 7.44031 12.3947 7.33936 12.406V12.0607L8.41589 10.4766L8.74033 10.3537L11.949 5.19717L11.8483 5.01406L12.4775 4.08008Z" fill="#FF680F"/>
<path d="M12.5989 5.76486L8.11084 12.9319L12.8016 5.88775L13.4308 5.64197H13.9789L14.1817 5.23642L14.0207 4.82104H13.6951L13.3497 4.93288L12.5989 5.76486Z" fill="#FF680F"/>
<path d="M7.07491 12.1209V12.4662L5.36917 14.9843V12.7501L5.55228 12.3544L5.36917 11.5322L5.16639 11.4302C4.25295 11.4592 3.33936 11.3775 2.44556 11.1869C2.1838 10.9436 5.30895 9.19727 8.27311 10.3746L7.07491 12.1209Z" fill="#FF680F"/>
<path d="M9.47102 11.1869L8.3441 12.9332C8.13257 13.0979 7.98521 13.3313 7.92749 13.5931C7.86605 13.9888 8.01843 14.3243 8.32321 14.3551C8.62798 14.3858 9.57179 13.7762 10.0191 14.1007C10.4664 14.4251 11.146 15.756 11.6745 15.8568C12.3823 15.9932 11.0846 12.0803 9.47102 11.1869Z" fill="#FF680F"/>
<path d="M5.16162 16.1308C5.16162 16.0528 5.18476 15.9765 5.2281 15.9116C5.27145 15.8468 5.33306 15.7962 5.40514 15.7664C5.47723 15.7365 5.55654 15.7287 5.63307 15.7439C5.70959 15.7591 5.77988 15.7967 5.83505 15.8519C5.89022 15.907 5.92779 15.9773 5.94301 16.0539C5.95823 16.1304 5.95042 16.2097 5.92056 16.2818C5.8907 16.3539 5.84014 16.4155 5.77527 16.4588C5.7104 16.5022 5.63413 16.5253 5.55611 16.5253C5.45148 16.5253 5.35114 16.4837 5.27716 16.4098C5.20318 16.3358 5.16162 16.2354 5.16162 16.1308Z" fill="#FF680F"/>
<path d="M5.5574 18.8001C4.84948 18.8001 4.17056 18.5189 3.66998 18.0183C3.1694 17.5177 2.88818 16.8388 2.88818 16.1309C2.88818 15.423 3.1694 14.744 3.66998 14.2435C4.17056 13.7429 4.84948 13.4617 5.5574 13.4617C5.76725 13.462 5.97634 13.4867 6.18047 13.5354L5.24157 15.0347C5.04016 15.0959 4.8597 15.2119 4.7203 15.3696C4.58091 15.5274 4.48806 15.7207 4.4521 15.9281C4.41615 16.1356 4.43849 16.3489 4.51665 16.5444C4.5948 16.7398 4.7257 16.9097 4.89476 17.0352C5.06381 17.1606 5.26438 17.2367 5.47411 17.2548C5.68383 17.273 5.89449 17.2326 6.08258 17.138C6.27068 17.0435 6.42883 16.8986 6.53942 16.7195C6.65001 16.5403 6.70868 16.334 6.7089 16.1235C6.70936 16.0193 6.6953 15.9154 6.66712 15.8151L6.68678 15.7856L6.7556 15.6737C6.78374 15.7124 6.82075 15.7437 6.86352 15.7651C6.90629 15.7865 6.95357 15.7973 7.00139 15.7966H7.5077C7.45719 15.5052 7.3426 15.2286 7.17221 14.9868L7.55686 14.3674C7.8964 14.7524 8.11766 15.2271 8.19412 15.7347C8.27057 16.2423 8.19898 16.7612 7.98791 17.2291C7.77685 17.697 7.43528 18.0941 7.00417 18.3728C6.57306 18.6514 6.07073 18.7998 5.5574 18.8001ZM6.1522 17.248C6.1115 17.2475 6.07111 17.2551 6.03339 17.2704C5.99568 17.2857 5.9614 17.3084 5.93256 17.3372C5.90372 17.3659 5.8809 17.4001 5.86544 17.4377C5.84998 17.4754 5.84218 17.5157 5.84251 17.5564V18.0922C6.16969 18.0443 6.47974 17.9155 6.74454 17.7174L6.36726 17.3389C6.33922 17.3104 6.30574 17.2877 6.2688 17.2723C6.23187 17.2569 6.19222 17.2478 6.1522 17.248ZM4.93803 17.248C4.89795 17.2482 4.85831 17.2563 4.8214 17.2719C4.78449 17.2876 4.75103 17.3103 4.72296 17.3389L4.35429 17.7076C4.61563 17.9058 4.92152 18.037 5.24526 18.0898V17.5577C5.24558 17.5172 5.23787 17.477 5.22256 17.4395C5.20725 17.402 5.18465 17.368 5.15607 17.3393C5.12749 17.3106 5.09351 17.2878 5.05608 17.2724C5.01865 17.2569 4.97852 17.2478 4.93803 17.248ZM7.00507 16.3877C6.94424 16.388 6.88483 16.4062 6.83432 16.4401C6.78382 16.474 6.74446 16.5221 6.72121 16.5783C6.69796 16.6345 6.69186 16.6964 6.70366 16.756C6.71547 16.8157 6.74465 16.8706 6.78755 16.9137L7.15623 17.2824C7.34914 17.0171 7.4729 16.7079 7.51631 16.3828L7.00507 16.3877ZM3.59236 16.3877C3.63587 16.7068 3.75558 17.0107 3.94137 17.2738L4.31005 16.9137C4.35295 16.8706 4.38214 16.8157 4.39394 16.756C4.40574 16.6964 4.39964 16.6345 4.37639 16.5783C4.35314 16.5221 4.31379 16.474 4.26328 16.4401C4.21277 16.4062 4.15336 16.388 4.09253 16.3877H3.59236ZM3.96964 14.9425C3.78021 15.1959 3.65384 15.4908 3.60096 15.8028H4.08515C4.14625 15.8031 4.20607 15.7853 4.25696 15.7514C4.30785 15.7176 4.34751 15.6694 4.37086 15.613C4.39421 15.5565 4.40019 15.4943 4.38805 15.4345C4.3759 15.3746 4.34618 15.3197 4.30267 15.2768L3.96964 14.9425ZM5.24771 14.1732C4.93937 14.2224 4.64685 14.3432 4.39361 14.5259L4.72174 14.854C4.76432 14.8981 4.81915 14.9283 4.87912 14.9409C4.93909 14.9534 5.00145 14.9477 5.05811 14.9244C5.11478 14.9011 5.16314 14.8613 5.19694 14.8102C5.23075 14.7591 5.24844 14.699 5.24771 14.6377V14.1732Z" fill="#FF680F"/>
<path d="M5.28174 16.1309C5.28174 16.0767 5.29781 16.0237 5.32792 15.9786C5.35804 15.9335 5.40084 15.8984 5.45091 15.8777C5.50099 15.8569 5.55609 15.8515 5.60925 15.8621C5.66241 15.8727 5.71124 15.8988 5.74957 15.9371C5.7879 15.9754 5.814 16.0242 5.82457 16.0774C5.83515 16.1306 5.82972 16.1857 5.80898 16.2357C5.78823 16.2858 5.75311 16.3286 5.70804 16.3587C5.66297 16.3888 5.60999 16.4049 5.55579 16.4049C5.48311 16.4049 5.4134 16.376 5.36201 16.3246C5.31061 16.2732 5.28174 16.2035 5.28174 16.1309Z" fill="#FF680F"/>
<path d="M5.57193 17.0169C5.35004 17.0172 5.13598 16.9349 4.97142 16.7861C4.80685 16.6373 4.70355 16.4326 4.68162 16.2118C4.65969 15.991 4.72071 15.7699 4.8528 15.5916C4.98488 15.4133 5.17858 15.2906 5.39619 15.2472L7.20639 12.3556C7.24335 12.3899 7.26733 12.4359 7.27427 12.4858C7.28121 12.5358 7.27069 12.5866 7.24449 12.6296L5.63091 15.2325C5.66721 15.2347 5.70333 15.2393 5.73906 15.246L5.7452 15.2325L5.75258 15.2165L6.48993 13.9876L7.33789 12.5694C7.69919 12.6296 8.02608 13.1323 8.02977 13.1384L6.47887 15.6565C6.45421 15.6959 6.42305 15.7308 6.3867 15.7597C6.44763 15.8956 6.47357 16.0446 6.46214 16.1931C6.45072 16.3416 6.40229 16.4849 6.32129 16.6099C6.24028 16.7349 6.12926 16.8376 5.99837 16.9087C5.86748 16.9798 5.72087 17.017 5.57193 17.0169ZM5.55595 15.6135C5.45333 15.6132 5.35294 15.6434 5.26749 15.7003C5.18205 15.7571 5.11539 15.838 5.07595 15.9328C5.0365 16.0275 5.02606 16.1318 5.04593 16.2325C5.0658 16.3332 5.1151 16.4257 5.18758 16.4983C5.26006 16.571 5.35246 16.6205 5.45309 16.6406C5.55373 16.6607 5.65806 16.6505 5.7529 16.6113C5.84773 16.5721 5.9288 16.5056 5.98584 16.4203C6.04288 16.335 6.07333 16.2347 6.07333 16.1321C6.07333 15.9947 6.01886 15.863 5.92186 15.7658C5.82487 15.6686 5.69328 15.6138 5.55595 15.6135Z" fill="#FF680F"/>
<path d="M5.55607 20.0942C4.77186 20.0944 4.00519 19.8621 3.35304 19.4265C2.7009 18.991 2.19257 18.3719 1.89235 17.6474C1.59213 16.9229 1.51352 16.1257 1.66645 15.3565C1.81938 14.5874 2.19699 13.8809 2.75151 13.3263C3.30603 12.7718 4.01255 12.3942 4.7817 12.2413C5.55086 12.0883 6.34809 12.167 7.07256 12.4672C7.79702 12.7674 8.41618 13.2757 8.85171 13.9279C9.28725 14.58 9.51959 15.3467 9.51934 16.1309C9.51804 17.1816 9.10007 18.1889 8.35709 18.9319C7.61411 19.6749 6.60679 20.0929 5.55607 20.0942ZM5.55607 12.3901C4.81615 12.3898 4.09277 12.609 3.47743 13.0199C2.86209 13.4308 2.38243 14.015 2.0991 14.6985C1.81578 15.382 1.74152 16.1342 1.88573 16.8599C2.02993 17.5857 2.38611 18.2523 2.90923 18.7756C3.43235 19.2989 4.0989 19.6553 4.82458 19.7998C5.55027 19.9442 6.30249 19.8702 6.98611 19.5871C7.66973 19.304 8.25404 18.8245 8.66515 18.2093C9.07625 17.5941 9.29568 16.8708 9.29568 16.1309C9.2947 15.1393 8.90043 14.1885 8.19937 13.4872C7.4983 12.7859 6.54769 12.3914 5.55607 12.3901Z" fill="#FF680F"/>
<path d="M5.52426 21.6856C4.43161 21.6858 3.36343 21.362 2.45483 20.7551C1.54622 20.1482 0.838002 19.2855 0.419751 18.2761C0.00149975 17.2667 -0.107998 16.1559 0.105108 15.0842C0.318214 14.0125 0.84435 13.0281 1.61697 12.2555C2.38959 11.4829 3.37399 10.9568 4.44565 10.7437C5.51732 10.5306 6.62812 10.64 7.63755 11.0583C8.64698 11.4766 9.5097 12.1848 10.1166 13.0934C10.7235 14.002 11.0473 15.0702 11.047 16.1628C11.0451 17.6269 10.4626 19.0306 9.4273 20.0659C8.392 21.1011 6.98839 21.6836 5.52426 21.6856ZM5.52426 11.9279C4.68698 11.9279 3.8685 12.1762 3.17231 12.6414C2.47611 13.1065 1.93348 13.7676 1.61301 14.5412C1.29254 15.3147 1.20863 16.1659 1.37188 16.9871C1.53514 17.8083 1.93823 18.5626 2.53019 19.1548C3.12215 19.7469 3.8764 20.1502 4.69757 20.3137C5.51873 20.4772 6.36994 20.3936 7.14355 20.0733C7.91717 19.7531 8.57846 19.2106 9.04381 18.5146C9.50915 17.8185 9.75766 17.0001 9.7579 16.1628C9.75692 15.0402 9.31061 13.9638 8.51689 13.1698C7.72318 12.3759 6.6469 11.9292 5.52426 11.9279Z" fill="#FF680F"/>
<path d="M14.812 5.69482L13.9592 5.9996L13.502 5.84721L12.8015 6.15198L11.43 8.41566C11.43 8.41566 11.1843 9.13704 11.43 9.13704C11.6758 9.13704 11.8872 8.64547 12.3444 8.87773C12.8015 9.11 12.6086 9.64827 12.4759 9.97147C12.3431 10.2947 11.8258 10.3856 12.0089 11.0566C12.1772 11.6711 13.4356 15.5877 13.6286 16.1886C13.6359 16.2112 13.6502 16.2308 13.6694 16.2448C13.6886 16.2587 13.7118 16.2661 13.7355 16.266H13.8449C13.8713 16.2668 13.8967 16.2769 13.9165 16.2945C13.9363 16.312 13.9493 16.336 13.9532 16.3622C13.9572 16.3883 13.9518 16.4151 13.9381 16.4377C13.9243 16.4603 13.9031 16.4774 13.8781 16.486C13.8621 16.491 13.8475 16.4995 13.8352 16.5109C13.8229 16.5222 13.8133 16.5362 13.8071 16.5517C13.8009 16.5672 13.7982 16.5839 13.7992 16.6006C13.8002 16.6173 13.8049 16.6336 13.8129 16.6482L14.812 18.4547C15.5576 18.8359 16.3906 19.0135 17.2269 18.9696L16.8582 18.6366L16.3568 18.4215C16.1227 18.3212 15.9206 18.1585 15.7728 17.951C15.625 17.7436 15.5371 17.4995 15.5187 17.2455C15.07 16.5363 14.7408 15.7583 14.5441 14.9425L15.2139 14.5566L15.0308 14.1707C15.0308 14.1707 14.6351 14.4374 14.3905 13.5218C14.146 12.6063 14.1447 10.3819 14.8821 9.83506C15.2768 9.51532 15.7757 9.35253 16.2831 9.3779C15.7397 9.18129 15.284 8.79771 14.9976 8.29582C14.7112 7.79392 14.6127 7.20648 14.7199 6.63864C14.7404 7.22787 14.9289 7.79896 15.2631 8.28468C15.5973 8.77041 16.0633 9.15055 16.6063 9.38036C18.8722 9.10412 21.1633 9.10412 23.4292 9.38036C23.4292 9.38036 23.825 9.07559 25.7753 9.62615C27.7255 10.1767 24.7724 7.73484 23.3653 7.12652C21.9582 6.5182 19.0149 4.73995 17.5894 4.82106C19.0761 4.94507 20.5185 5.38857 21.8181 6.12126V5.69482C20.6962 5.06085 19.5245 4.51956 18.3145 4.07633C17.4309 3.89691 16.8828 3.77525 16.8828 3.77525C16.8828 3.77525 15.9082 3.62286 15.8468 3.77525C15.7853 3.92763 14.7506 4.58756 14.6596 4.82106C14.5687 5.05456 14.812 5.69482 14.812 5.69482Z" fill="#FF680F"/>
<path d="M25.3218 12.9332C24.7997 12.2249 24.3683 11.4541 24.0376 10.6388C24.1335 10.3549 29.2101 12.1258 29.2101 12.3285C29.2248 12.4452 29.2081 12.5637 29.1616 12.6717C29.1152 12.7797 29.0407 12.8734 28.9459 12.943C27.7388 13.0244 26.5277 13.0244 25.3206 12.943" fill="#FF680F"/>
<path d="M23.4935 11.8873C23.4935 11.8873 23.7675 12.7328 23.158 13.0056C22.5484 13.2785 19.8989 13.743 19.7772 14.6856C19.6556 15.6282 19.8387 16.9357 21.6661 16.8436C23.4935 16.7514 25.9046 14.4361 28.4596 14.2223C28.4597 14.258 28.468 14.2933 28.4838 14.3253C28.4997 14.3573 28.5227 14.3852 28.5511 14.407C28.5795 14.4287 28.6125 14.4436 28.6475 14.4506C28.6826 14.4576 28.7187 14.4564 28.7533 14.4472L29.4095 14.269C29.7497 14.1776 30.0995 14.1265 30.4516 14.1166L42.0453 13.7676C42.0453 13.7676 42.441 13.9507 42.0453 14.2247C41.6496 14.4988 40.2179 16.3139 40.1257 15.8629C40.0336 15.4119 41.5881 14.2223 41.5881 14.2223C41.5881 14.2223 39.9733 14.8478 39.8824 15.8604C39.8824 15.8604 32.2631 15.7523 29.6172 16.1296C26.9713 16.5068 21.6661 18.4363 20.1434 17.6706C19.7942 17.5114 19.4857 17.275 19.241 16.9792C18.9964 16.6835 18.822 16.3361 18.731 15.9632C18.64 15.5903 18.6348 15.2016 18.7158 14.8264C18.7967 14.4512 18.9618 14.0993 19.1984 13.7971C20.2037 12.5178 23.2194 12.5018 23.4935 11.8873Z" fill="#FF680F"/>
<path d="M39.6734 16.1308C39.6734 16.1308 38.4813 16.7231 38.3585 17.4519C38.2356 18.1806 39.9733 15.9858 39.9733 15.9858C39.9733 15.9858 29.1292 15.9526 27.5759 16.7932C26.0225 17.6338 19.8177 19.3039 18.8727 16.9345C18.798 17.0794 18.768 17.2432 18.7866 17.4051C18.8052 17.567 18.8715 17.7197 18.9771 17.8439C19.3977 18.308 19.9408 18.644 20.5439 18.8131C21.147 18.9823 21.7855 18.9777 22.3862 18.8C27.6187 17.8942 32.936 17.5751 38.2393 17.8488C38.2393 17.8488 37.658 16.8804 39.6734 16.1308Z" fill="#FF680F"/>
<path d="M34.1053 6.57724C34.1053 6.57724 32.4634 8.87779 32.2164 9.23786C31.8249 9.81616 31.2941 10.2866 30.6729 10.6057C30.2465 10.7814 29.444 11.2889 26.6752 9.52174C26.6752 9.52174 25.6368 8.54721 25.7584 8.3641C25.8801 8.18099 26.529 8.66273 27.4445 8.69345C28.2526 8.81887 29.0789 8.7474 29.8534 8.48509C30.628 8.22279 31.3277 7.77741 31.8932 7.18679C32.1777 6.90246 32.531 6.69681 32.9188 6.58997C33.3065 6.48313 33.7154 6.47874 34.1053 6.57724Z" fill="#FF680F"/>
<path d="M22.8803 14.6342C23.0231 14.8926 23.0841 15.1883 23.0551 15.4822C23.0261 15.776 22.9086 16.0541 22.7181 16.2797C23.3267 15.9801 23.9074 15.6268 24.4533 15.2241C24.503 15.1156 24.5219 14.9955 24.5079 14.877C24.4939 14.7585 24.4476 14.6461 24.374 14.5522C24.3004 14.4583 24.2023 14.3865 24.0906 14.3446C23.9789 14.3026 23.8578 14.2923 23.7405 14.3147C23.3956 14.3441 23.0537 14.4017 22.7181 14.4867L24.0379 14.0861C24.0379 14.0861 23.5242 13.3733 23.1433 13.5245C22.6543 13.6528 22.1551 13.7388 21.6514 13.7813C22.016 13.9058 22.3283 14.1491 22.5382 14.4722C22.7481 14.7953 22.8434 15.1795 22.809 15.5632C22.809 15.5632 22.8705 14.7411 22.8803 14.6342Z" fill="#FF680F"/>
<path d="M22.6062 10.7236C22.8573 10.8005 23.078 10.9541 23.2374 11.1628C23.3967 11.3715 23.4867 11.6249 23.4947 11.8874L22.9011 12.0607L22.2093 12.2868C22.179 12.2968 22.1465 12.2984 22.1154 12.2915C22.0842 12.2846 22.0555 12.2694 22.0323 12.2475L21.6513 11.8874L21.7841 12.1393C21.7953 12.1615 21.8018 12.1858 21.803 12.2107C21.8042 12.2356 21.8001 12.2604 21.7911 12.2836C21.782 12.3068 21.7682 12.3279 21.7505 12.3453C21.7327 12.3628 21.7115 12.3764 21.6882 12.3851L20.1889 12.9295C20.1423 12.8055 20.1239 12.6727 20.135 12.5407C20.146 12.4087 20.1863 12.2809 20.2528 12.1663C20.4789 11.7719 20.5244 11.4978 20.7223 11.4818C20.9201 11.4659 21.4989 11.7559 21.6513 11.5126C21.8658 11.2405 22.1017 10.9862 22.3567 10.7519C22.3907 10.7242 22.432 10.7068 22.4755 10.7018C22.519 10.6968 22.5631 10.7044 22.6025 10.7236" fill="#FF680F"/>
<path d="M23.3324 10.9042L22.6147 10.4581C22.5747 10.4329 22.5272 10.4222 22.4803 10.4278C22.4333 10.4334 22.3897 10.4549 22.3567 10.4888L21.5886 11.2692C21.553 11.3047 21.5055 11.3257 21.4553 11.3279C21.4051 11.3302 21.3558 11.3136 21.3172 11.2815C21.2786 11.2493 21.2534 11.2039 21.2465 11.1541C21.2397 11.1043 21.2516 11.0537 21.2801 11.0123L21.7434 10.3524C21.7978 10.275 21.827 10.1828 21.827 10.0882C21.827 9.96659 21.8751 9.84992 21.961 9.76376L22.2534 9.4725L22.8163 9.43809C22.8526 9.43599 22.8888 9.44339 22.9213 9.45955C22.9538 9.47572 22.9816 9.50009 23.0019 9.53026L23.7159 10.6031C23.7375 10.6363 23.7493 10.6749 23.7499 10.7145C23.7505 10.7541 23.7397 10.7931 23.719 10.8268C23.6983 10.8606 23.6684 10.8877 23.6328 10.9051C23.5972 10.9225 23.5574 10.9295 23.518 10.9251L23.3324 10.9042Z" fill="#FF680F"/>
<path d="M27.7994 14.1017C27.7994 14.1017 27.3558 13.4135 26.9564 13.3397C25.1499 13.0079 25.3833 13.6617 25.0479 14.8919C25.9211 14.4945 26.8483 14.2282 27.7994 14.1017Z" fill="#FF680F"/>
<path d="M24.9655 12.9344C25.006 13.1482 24.8426 14.1117 24.834 14.532C24.834 14.532 24.1531 13.1408 23.5239 13.2219C23.659 12.9676 23.7403 12.6882 23.7629 12.4011C23.7855 12.1141 23.7489 11.8254 23.6554 11.553L23.8484 11.032C23.8484 11.032 24.9249 12.7205 24.9655 12.9344Z" fill="#FF680F"/>
<path d="M16.9936 9.97148C17.1915 9.51801 17.962 9.38037 17.962 9.38037H19.739C19.739 9.38037 20.5095 9.51801 20.7074 9.97148C20.9053 10.425 20.5845 10.8932 20.3117 11.3233C20.1777 11.5371 19.7931 12.0508 19.4342 12.5203C19.4011 12.5642 19.3592 12.6009 19.3113 12.628C19.2633 12.655 19.2103 12.6719 19.1555 12.6775C19.1007 12.6832 19.0454 12.6775 18.9929 12.6608C18.9404 12.6441 18.8919 12.6168 18.8505 12.5805C18.8091 12.6168 18.7606 12.6441 18.7081 12.6608C18.6556 12.6775 18.6003 12.6832 18.5455 12.6775C18.4907 12.6719 18.4377 12.655 18.3897 12.628C18.3418 12.6009 18.2999 12.5642 18.2668 12.5203C17.9079 12.0508 17.5294 11.5371 17.3893 11.3233C17.1153 10.8919 16.7957 10.425 16.9936 9.97148Z" fill="#FF680F"/>
<path d="M17.2503 11.5961L18.14 12.7156C18.1943 12.7838 18.2633 12.8389 18.3418 12.8767C18.4203 12.9146 18.5064 12.9343 18.5935 12.9344H19.0851C19.2566 12.933 19.421 12.8652 19.5435 12.7451C19.5696 12.7198 19.6024 12.7025 19.6381 12.6951C19.6737 12.6878 19.7107 12.6907 19.7447 12.7036C19.7787 12.7165 19.8084 12.7388 19.8302 12.7679C19.852 12.797 19.8651 12.8317 19.8679 12.868C19.8723 12.9062 19.8652 12.9449 19.8475 12.9791C19.8297 13.0132 19.8022 13.0413 19.7684 13.0597C19.1925 13.3849 18.7525 13.9061 18.5284 14.5283C18.4179 14.8967 18.3833 15.2837 18.4268 15.6658C18.4703 16.048 18.591 16.4173 18.7815 16.7514L16.8632 14.1707L17.9692 13.3338L16.9332 13.9236C16.8873 13.95 16.8332 13.9586 16.7813 13.9477C16.7294 13.9368 16.6834 13.9073 16.6518 13.8646L16.0705 13.0941C16.0369 13.0492 16.0126 12.998 15.9991 12.9435C15.9856 12.8891 15.9831 12.8325 15.9918 12.777C16.0005 12.7216 16.0202 12.6684 16.0498 12.6208C16.0793 12.5731 16.1182 12.5318 16.1639 12.4993C16.2542 12.4345 16.315 12.3365 16.3332 12.2269C16.3514 12.1172 16.3255 12.0049 16.261 11.9143L15.7805 11.2434C15.6976 11.1256 15.5778 11.0388 15.44 10.9967C15.3022 10.9546 15.1544 10.9597 15.0198 11.0111C14.8495 11.0627 14.7048 11.1762 14.6143 11.3294C14.5791 11.1853 14.5731 11.0356 14.5965 10.8892C14.6199 10.7427 14.6723 10.6024 14.7507 10.4765C15.1434 10.1405 15.6366 9.94422 16.1529 9.91858L16.8558 11.4805C16.8778 11.5114 16.9093 11.5342 16.9455 11.5453C16.9818 11.5564 17.0206 11.5552 17.0561 11.542C17.0902 11.5291 17.1275 11.5275 17.1626 11.5372C17.1978 11.5469 17.2277 11.5675 17.2503 11.5961Z" fill="#FF680F"/>
<path d="M15.4979 13.3609L18.0921 16.9137L17.4113 16.9948L15.026 13.7419C14.7616 13.3064 14.6493 12.7955 14.7064 12.2893C14.8588 11.6035 15.3307 12.2893 15.3307 12.2893L18.1056 15.917L18.7324 16.7539L15.4979 13.3609Z" fill="#FF680F"/>
<path d="M16.8533 16.9186C16.1541 17.2086 15.8936 17.4617 15.9083 17.6694C15.9718 18.0623 16.1851 18.4153 16.5034 18.6541C16.8218 18.8929 17.2203 18.999 17.6153 18.95C18.4012 18.8127 19.2049 18.8127 19.9908 18.95C19.9908 18.95 18.6967 18.3355 18.5284 17.6707C18.36 17.0058 18.5898 16.8436 18.5898 16.8436C18.0136 16.7257 17.4172 16.7515 16.8533 16.9186Z" fill="#FF680F"/>
<path d="M29.4956 13.007C30.0032 12.8226 30.7651 13.4985 30.7651 13.4985L32.0235 12.0103C32.0235 12.0103 32.3381 12.0005 32.2976 12.234C32.257 12.4675 32.2263 12.8386 32.2263 12.8386C32.0041 13.1298 31.7632 13.406 31.5049 13.6657C31.4238 13.6853 31.1903 13.5047 31.1903 13.5047L30.9359 13.8291C30.9359 13.8291 29.2498 13.7062 28.6919 14.3207C28.6931 14.317 28.9881 13.1901 29.4956 13.007Z" fill="#FF680F"/>
<mask id="mask1_86_32706" style="mask-type:luminance" maskUnits="userSpaceOnUse" x="23" y="6" width="20" height="8">
<path d="M23.5239 6.6521H42.9987V13.3399H23.5239V6.6521Z" fill="white"/>
</mask>
<g mask="url(#mask1_86_32706)">
<path d="M25.8589 9.88781C25.9676 9.94116 26.09 9.95998 26.2097 9.94175C26.3295 9.92352 26.4407 9.8691 26.5286 9.78581C28.7825 11.1671 29.6562 11.086 30.4366 10.9029C31.1476 10.5889 31.7823 10.1248 32.2972 9.54248L37.4587 7.92399L32.4803 9.19716C32.4803 9.19716 33.9612 6.77495 34.4699 6.6582C35.9327 7.00667 37.3602 7.48922 38.7343 8.09973C38.9859 8.01704 39.2441 7.95578 39.5061 7.91662C40.6964 8.57683 41.8366 9.32356 42.9176 10.1508C43.0196 10.4556 41.841 10.313 41.841 10.313L41.4957 10.8046L42.2195 11.5075L42.6324 11.5481L43.0011 12.1773L42.6963 12.3002L42.7983 13.3362C42.3288 12.4117 41.647 11.6116 40.8087 11.0012C40.5445 10.8587 40.8493 10.4126 40.5248 10.3315C40.3466 10.2872 38.3128 10.4851 36.494 10.6743C36.4503 10.6764 36.4093 10.6958 36.3799 10.7282C36.3505 10.7606 36.3352 10.8033 36.3373 10.847C36.3394 10.8907 36.3588 10.9317 36.3912 10.9611C36.4235 10.9905 36.4663 11.0058 36.51 11.0037L37.1871 11.011C37.1106 11.2437 36.9928 11.4606 36.8393 11.6513C36.3203 11.747 35.7911 11.7742 35.2651 11.7324C35.2306 11.7324 35.1864 11.6366 35.152 11.5137C35.1365 11.4558 35.1346 11.3952 35.1463 11.3365C35.158 11.2777 35.1831 11.2225 35.2196 11.175C35.256 11.1275 35.3029 11.089 35.3566 11.0625C35.4103 11.036 35.4694 11.0222 35.5293 11.0221H35.6522C35.6691 11.0212 35.6857 11.017 35.701 11.0097C35.7163 11.0024 35.7301 10.9921 35.7414 10.9795C35.7528 10.9669 35.7615 10.9522 35.7672 10.9362C35.7729 10.9202 35.7753 10.9033 35.7744 10.8863C35.7736 10.8694 35.7693 10.8528 35.762 10.8374C35.7547 10.8221 35.7445 10.8084 35.7319 10.797C35.7193 10.7857 35.7045 10.7769 35.6885 10.7713C35.6725 10.7656 35.6556 10.7631 35.6386 10.764C34.5129 10.8869 33.6392 10.9816 33.6392 10.9816C34.0702 10.499 34.5864 10.0999 35.1618 9.80424C36.1578 9.63259 37.1768 9.64634 38.1678 9.8448C34.9996 8.95137 34.3495 9.78335 33.1919 10.9816C32.5079 11.7327 31.5927 12.234 30.5915 12.4059C29.8406 12.5288 28.1017 11.3982 26.7941 11.0037C25.8952 10.7146 24.9729 10.5041 24.0376 10.3745L23.5239 9.66415C23.9098 9.31882 25.4128 9.72559 25.8589 9.88781Z" fill="#FF680F"/>
</g>
<path d="M21.2924 16.631C21.0348 16.631 20.7829 16.5546 20.5687 16.4114C20.3545 16.2683 20.1875 16.0648 20.0889 15.8268C19.9903 15.5888 19.9645 15.3268 20.0148 15.0742C20.065 14.8215 20.1891 14.5894 20.3713 14.4072C20.5535 14.225 20.7856 14.1009 21.0383 14.0507C21.291 14.0004 21.5529 14.0262 21.7909 14.1248C22.0289 14.2234 22.2324 14.3904 22.3755 14.6046C22.5187 14.8188 22.5951 15.0707 22.5951 15.3283C22.5947 15.6737 22.4574 16.0048 22.2132 16.2491C21.9689 16.4933 21.6378 16.6306 21.2924 16.631ZM21.2924 14.9867C21.2245 14.9867 21.1582 15.0068 21.1018 15.0445C21.0454 15.0823 21.0014 15.1359 20.9755 15.1986C20.9496 15.2613 20.9429 15.3303 20.9562 15.3969C20.9695 15.4634 21.0023 15.5245 21.0504 15.5724C21.0985 15.6203 21.1597 15.6529 21.2263 15.666C21.2929 15.679 21.3618 15.6721 21.4245 15.6459C21.4871 15.6198 21.5406 15.5757 21.5781 15.5191C21.6156 15.4626 21.6355 15.3962 21.6353 15.3283C21.6354 15.2832 21.6267 15.2386 21.6095 15.1969C21.5923 15.1552 21.5671 15.1174 21.5352 15.0855C21.5033 15.0536 21.4655 15.0284 21.4238 15.0112C21.3821 14.994 21.3375 14.9865 21.2924 14.9867Z" fill="#FF680F"/>
</g>
<defs>
<clipPath id="clip0_86_32706">
<rect width="43" height="21.6856" fill="white"/>
</clipPath>
</defs>
</svg>
