<svg width="44" height="23" viewBox="0 0 44 23" fill="none" xmlns="http://www.w3.org/2000/svg">
<g clip-path="url(#clip0_86_32766)">
<path d="M36.3125 22.5247C37.0508 22.5245 37.7847 22.4105 38.4884 22.1868C40.3024 21.6066 41.8124 20.3309 42.6876 18.6394C43.5627 16.9478 43.7316 14.9783 43.1572 13.1624C42.7 11.7066 41.7895 10.4349 40.5587 9.5329C39.3278 8.63091 37.8409 8.1458 36.3149 8.14835C35.577 8.14865 34.8435 8.26261 34.1402 8.48623L33.3822 6.72067C33.396 6.72281 33.4101 6.72281 33.4239 6.72067H34.139C34.3286 6.72034 34.5102 6.6449 34.6443 6.51087C34.7783 6.37684 34.8538 6.19515 34.8541 6.0056V1.70535C34.8515 1.51751 34.7752 1.3382 34.6417 1.20606C34.5082 1.07391 34.3281 0.999512 34.1402 0.998886H33.4252C33.0307 1.00072 32.6408 1.08432 32.2803 1.24441C31.9197 1.40449 31.5963 1.63758 31.3303 1.92897L30.5035 0L29.1876 0.563946L29.6164 1.56652C29.0452 1.19629 28.3791 0.999156 27.6985 0.998886H24.837C23.9792 0.996922 23.1322 1.18898 22.3592 1.56069C21.5862 1.93239 20.9073 2.47412 20.3733 3.14532H14.5176C13.8449 3.14603 13.1766 3.03816 12.5383 2.82588C11.7538 2.56463 10.9324 2.43146 10.1055 2.43148H9.80453C9.26133 2.43494 8.73956 2.64389 8.34411 3.01632C7.94866 3.38875 7.70884 3.89706 7.67284 4.43908L7.60035 4.30025C7.44957 3.88607 7.17521 3.5282 6.81438 3.27505C6.45356 3.02191 6.02369 2.8857 5.58292 2.88485H5.18484V4.31499H5.58538C5.73578 4.31501 5.88234 4.36254 6.00413 4.4508C6.12593 4.53905 6.21673 4.66352 6.26359 4.80645C6.28079 4.84945 6.29062 4.87771 6.30168 4.89982L6.50071 5.29545H5.51043C5.32067 5.29577 5.13879 5.37138 5.00472 5.50568C4.87066 5.63998 4.79536 5.82198 4.79536 6.01174C4.79568 6.20129 4.87113 6.38298 5.00516 6.51701C5.13919 6.65105 5.32088 6.72649 5.51043 6.72681H10.1055C10.7792 6.72653 11.4484 6.83523 12.0873 7.04872C12.2913 7.11629 12.5235 7.18018 12.843 7.2539L15.6025 13.171H14.4807C14.0371 11.717 13.137 10.4444 11.9137 9.54181C10.6905 8.63918 9.20904 8.15446 7.68881 8.15941H7.65809C6.13305 8.15383 4.64643 8.63766 3.41679 9.53976C2.18716 10.4419 1.27936 11.7147 0.826849 13.171C0.259448 14.982 0.433501 16.9441 1.31083 18.6269C2.18816 20.3097 3.69713 21.5758 5.50674 22.1475C6.20237 22.3669 6.92744 22.4788 7.65687 22.4792C9.18102 22.4834 10.6664 21.9988 11.8948 21.0965C13.1232 20.1943 14.03 18.922 14.482 17.4664H17.2366C17.753 17.9253 18.4194 18.1796 19.1103 18.1814H24.8357C25.4962 18.1796 26.1358 17.9503 26.6469 17.532C27.1581 17.1137 27.5095 16.5321 27.642 15.8851H27.6506L31.506 5.9712L32.8268 9.05386C31.3785 9.86124 30.2525 11.143 29.6385 12.6833C29.0277 14.2252 28.9674 15.9306 29.4677 17.5118C29.9251 18.968 30.836 20.2398 32.0674 21.1416C33.2988 22.0434 34.7862 22.528 36.3125 22.5247ZM12.784 16.9553C12.3365 18.01 11.5854 18.9077 10.6263 19.5343C9.66711 20.1609 8.54323 20.4881 7.39762 20.4741H7.36936C6.21949 20.4883 5.09116 20.1617 4.12667 19.5355C3.16218 18.9092 2.40472 18.0114 1.94982 16.9553C1.66542 16.2847 1.51947 15.5635 1.52073 14.8351C1.522 14.1067 1.67046 13.386 1.9572 12.7164C2.25809 12.011 2.69829 11.3737 3.25143 10.8425C3.80456 10.3113 4.45924 9.89727 5.17624 9.62518C5.8737 9.35323 6.61585 9.21405 7.36445 9.21481C8.5146 9.20081 9.64313 9.52778 10.6076 10.1545C11.5722 10.7812 12.3295 11.6795 12.784 12.7361H11.1573C11.1491 12.7225 11.14 12.7093 11.1302 12.6968L11.1093 12.6661C11.0762 12.6145 11.0405 12.5641 11.0061 12.5162L10.9717 12.4695C10.9005 12.3712 10.8292 12.2766 10.7567 12.1881C10.7064 12.1279 10.6535 12.0714 10.5896 12.0051C10.5098 11.9191 10.4275 11.838 10.3439 11.7593C10.2604 11.6807 10.2063 11.6365 10.1522 11.5971C10.0638 11.5259 9.9704 11.4571 9.87579 11.3944C9.78119 11.3318 9.72836 11.2961 9.66447 11.2568C9.57723 11.2052 9.47894 11.1536 9.35853 11.0934L9.32167 11.075C9.26147 11.0455 9.19881 11.0135 9.13861 10.9877C9.0268 10.9386 8.91008 10.8993 8.79704 10.8649L8.74176 10.8452C8.6877 10.8256 8.63241 10.8059 8.57712 10.7899C8.4432 10.7531 8.30805 10.7273 8.1815 10.7052L8.10409 10.6892C8.06477 10.6806 8.023 10.672 7.98123 10.6658C7.77282 10.6365 7.56262 10.6217 7.35216 10.6216C7.1417 10.6217 6.9315 10.6365 6.7231 10.6658C6.1454 10.7418 5.58871 10.9325 5.08571 11.2266C4.58272 11.5207 4.14355 11.9124 3.79401 12.3786C3.46593 12.8128 3.22792 13.3082 3.09394 13.8356C2.95996 14.3631 2.93272 14.912 3.01383 15.4502C3.18859 16.4695 3.72046 17.3934 4.51424 18.0564C5.30801 18.7193 6.31184 19.0781 7.34602 19.0685C7.5577 19.0683 7.76912 19.0536 7.97877 19.0243C8.0144 19.0243 8.05003 19.0108 8.08566 19.0034L8.17781 18.985C8.30067 18.9629 8.43828 18.9371 8.5722 18.9002C8.63118 18.8842 8.68647 18.8646 8.74053 18.8449L8.79582 18.8252C8.89902 18.7921 9.01943 18.7503 9.13615 18.7024C9.1939 18.6766 9.25287 18.6471 9.30939 18.6188L9.35608 18.5955C9.4642 18.5427 9.56495 18.4886 9.66078 18.4321C9.73327 18.3878 9.80207 18.3436 9.87211 18.2945C9.97408 18.2281 10.0736 18.1507 10.1486 18.0917C10.2235 18.0328 10.2862 17.9799 10.3402 17.9308C10.4189 17.8608 10.4963 17.7834 10.5859 17.6851C10.6412 17.6261 10.699 17.5622 10.7518 17.502C10.8292 17.4135 10.8993 17.3152 10.9656 17.2219L10.9939 17.1838C11.0332 17.131 11.07 17.0806 11.1044 17.0253C11.1122 17.0117 11.1208 16.9985 11.1302 16.986C11.1376 16.9761 11.145 16.9663 11.1511 16.9553H12.784ZM35.8382 9.21481C36.5778 9.21511 37.3101 9.36207 37.9925 9.6472C38.675 9.93233 39.2941 10.35 39.8141 10.8759C40.3375 11.3997 40.7518 12.0221 41.0329 12.7071C41.3141 13.3921 41.4565 14.1261 41.4519 14.8666C41.4444 16.3558 40.8484 17.7816 39.7937 18.833C38.7391 19.8844 37.3115 20.4761 35.8222 20.479H35.8038C35.064 20.4784 34.3317 20.331 33.6492 20.0455C32.9668 19.7599 32.3477 19.3418 31.8279 18.8154C31.3052 18.292 30.8914 17.6701 30.6105 16.9858C30.3296 16.3015 30.1871 15.5682 30.1914 14.8285C30.195 13.8506 30.4529 12.8906 30.9397 12.0425C31.4265 11.1944 32.1256 10.4876 32.9681 9.99131L33.5296 11.2924C32.7945 11.7671 32.2251 12.4585 31.9002 13.2709C31.5753 14.0834 31.511 14.9767 31.7161 15.8274C31.9364 16.7466 32.4602 17.5646 33.2028 18.1494C33.9454 18.7342 34.8635 19.0515 35.8087 19.0501C36.1443 19.0506 36.4786 19.0093 36.8039 18.9272C37.3422 18.7981 37.8496 18.5635 38.2967 18.237C38.7438 17.9106 39.1217 17.4987 39.4086 17.0253C39.6975 16.5533 39.8897 16.0286 39.9741 15.4817C40.0584 14.9348 40.0333 14.3765 39.9001 13.8394C39.6803 12.9202 39.1568 12.102 38.4143 11.5172C37.6719 10.9324 36.7539 10.6151 35.8087 10.6167C35.4728 10.6161 35.1381 10.6574 34.8123 10.7396L34.252 9.43597C34.7635 9.288 35.2935 9.21353 35.8259 9.21481H35.8382ZM9.71238 17.6617C9.58601 17.7714 9.45081 17.8704 9.30816 17.9578C9.27744 17.9775 9.24181 17.9971 9.20495 18.0168L9.17055 18.0352C9.06828 18.0923 8.96285 18.1436 8.85479 18.1888C8.79336 18.2134 8.7393 18.2343 8.69015 18.2502C8.5787 18.2889 8.46506 18.3209 8.34982 18.3461L8.32156 18.3534C8.27979 18.3633 8.23801 18.3731 8.1987 18.3805C8.02924 18.4116 7.85741 18.4281 7.68512 18.4296C6.86915 18.4303 6.08623 18.1073 5.5081 17.5314C4.92997 16.9556 4.60384 16.174 4.60123 15.358C4.60384 14.5421 4.92997 13.7604 5.5081 13.1846C6.08623 12.6088 6.86915 12.2858 7.68512 12.2864C7.85946 12.2878 8.03334 12.3042 8.20484 12.3356L8.29576 12.3552H8.32279L8.35965 12.3638C8.47488 12.389 8.58853 12.421 8.69998 12.4597L8.72701 12.4695C8.77247 12.4867 8.81916 12.5039 8.86462 12.5223C8.97268 12.5675 9.0781 12.6188 9.18038 12.6759L9.23076 12.7042L9.24427 12.7115C9.27007 12.725 9.29342 12.7386 9.31676 12.7545C9.45858 12.8407 9.59297 12.9385 9.71853 13.0469H6.91231C6.70821 13.0469 6.51245 13.1279 6.36802 13.2721C6.22358 13.4163 6.14228 13.612 6.14195 13.8161V16.8877C6.1426 17.0918 6.22422 17.2873 6.36889 17.4313C6.51355 17.5752 6.70944 17.6559 6.91354 17.6556H9.71238V17.6617ZM36.3334 12.2864C37.148 12.2864 37.9293 12.61 38.5053 13.1861C39.0813 13.7621 39.405 14.5434 39.405 15.358C39.405 16.1727 39.0813 16.9539 38.5053 17.53C37.9293 18.106 37.148 18.4296 36.3334 18.4296C35.5187 18.4296 34.7374 18.106 34.1614 17.53C33.5854 16.9539 33.2618 16.1727 33.2618 15.358C33.2645 14.8902 33.374 14.4291 33.5821 14.0101C33.7901 13.591 34.0911 13.2251 34.4621 12.9401L35.6281 15.6615L37.0398 15.0558L35.8726 12.3331C36.025 12.3073 36.1789 12.2917 36.3334 12.2864ZM23.0223 13.3099C22.738 13.7717 22.5876 14.3034 22.5876 14.8457C22.5876 15.388 22.738 15.9196 23.0223 16.3815H19.4592C19.2446 16.3812 19.0324 16.3369 18.8356 16.2513C18.6389 16.1658 18.4618 16.0407 18.3153 15.8839L18.3092 15.8741V15.8679C18.1459 15.6879 18.0265 15.4726 17.9603 15.2388V15.2229V15.2069C17.9603 15.1946 17.9517 15.1823 17.948 15.17C17.8996 14.9561 17.8996 14.734 17.948 14.5201C17.9514 14.5072 17.9555 14.4945 17.9603 14.482L17.9701 14.4525C18.0365 14.2184 18.1559 14.0027 18.319 13.8222C18.3233 13.8173 18.327 13.812 18.3301 13.8062C18.4771 13.6506 18.6544 13.5266 18.8511 13.4421C19.0479 13.3576 19.2598 13.3143 19.4739 13.3148L23.0223 13.3099ZM24.5581 13.3099C24.9652 13.3105 25.3554 13.4725 25.6433 13.7604C25.9312 14.0483 26.0932 14.4386 26.0939 14.8457C26.0932 15.2528 25.9312 15.6431 25.6433 15.9309C25.3554 16.2188 24.9652 16.3808 24.5581 16.3815C24.1509 16.3808 23.7607 16.2188 23.4728 15.9309C23.1849 15.6431 23.0229 15.2528 23.0223 14.8457C23.0229 14.4386 23.1849 14.0483 23.4728 13.7604C23.7607 13.4725 24.1509 13.3105 24.5581 13.3099ZM15.8347 14.3972C15.8347 14.4058 15.8347 14.4144 15.8347 14.423C15.8347 14.4316 15.8347 14.439 15.8347 14.4488V14.4685V14.4832C15.7706 14.7177 15.7706 14.9651 15.8347 15.1995V15.218C15.8408 15.2462 15.847 15.2732 15.8556 15.3027C15.8587 15.3115 15.8607 15.3205 15.8617 15.3298V15.3494V15.358H7.67161V14.3346H15.7942L15.8372 14.3985L15.8347 14.3972ZM17.9037 10.2383L17.1014 13.3099L15.8556 10.2383H17.9037ZM28.142 12.2864L27.336 13.3099C26.9419 13.12 26.5241 12.9837 26.0939 12.9044L26.5546 12.2901L28.142 12.2864ZM21.9742 7.16667V8.47763C21.9773 8.5645 21.9859 8.6511 22 8.73687C21.7989 8.81574 21.6165 8.9357 21.4644 9.08908C21.3123 9.24246 21.1938 9.42589 21.1166 9.62764L20.1067 12.2594H19.184C19.1594 12.2594 19.1348 12.2594 19.1115 12.2594H19.0906H19.0709H19.0537H19.0365H19.0218L18.9272 12.2864L19.6988 9.60429C19.7013 9.59563 19.705 9.58736 19.7098 9.57972C19.7144 9.57239 19.7181 9.56456 19.7209 9.55637L20.4016 7.16544H21.9742V7.16667ZM24.9463 10.2383C24.9624 10.2385 24.9782 10.2418 24.993 10.2481C25.0244 10.2638 25.0488 10.2906 25.0615 10.3233C25.0743 10.356 25.0744 10.3923 25.0618 10.425L24.3848 12.2864H21.9988L22.7126 10.3206C22.7204 10.2959 22.7357 10.2743 22.7565 10.2589C22.7772 10.2435 22.8023 10.2349 22.8281 10.2346L24.9463 10.2383ZM29.1655 7.16667L27.9209 10.2383C27.6843 10.0844 27.4081 10.0024 27.1259 10.0024H26.2585C26.2161 9.61094 26.0283 9.24967 25.7323 8.99007C25.4363 8.73046 25.0537 8.59143 24.66 8.60049H23.1697C23.1508 8.60098 23.132 8.59775 23.1144 8.59097C23.0968 8.5842 23.0806 8.57402 23.067 8.56101C23.0533 8.548 23.0423 8.53242 23.0346 8.51516C23.0269 8.49791 23.0227 8.47931 23.0223 8.46043V7.1937H28.8792C28.9735 7.19034 29.0675 7.1809 29.1606 7.16544L29.1655 7.16667ZM18.9272 7.16667L18.5205 8.19012H15.5091L14.8309 7.16667H18.9272ZM18.9272 4.77819C18.7439 5.21467 18.6199 5.67377 18.5586 6.14321H14.0126C13.3534 6.14534 12.698 6.04206 12.0714 5.83728C11.463 5.64332 10.8335 5.52328 10.1965 5.47974C10.1634 5.47096 10.1297 5.46439 10.0957 5.46008H9.39294C9.20957 5.46238 9.03277 5.3919 8.90127 5.26409C8.76977 5.13627 8.69429 4.96155 8.69138 4.77819C8.69429 4.59483 8.76977 4.4201 8.90127 4.29229C9.03277 4.16447 9.20957 4.09399 9.39294 4.09629H9.68658C10.3451 4.0937 10.9997 4.19699 11.6254 4.40222C12.3961 4.65353 13.202 4.78044 14.0126 4.77819H18.9272ZM28.0044 3.0716C28.5377 3.0306 29.0657 3.20085 29.4746 3.54561C29.8835 3.89037 30.1405 4.38204 30.1902 4.91457V5.52889C30.1736 5.7064 30.0879 5.87029 29.9516 5.98521C29.8153 6.10013 29.6393 6.15687 29.4616 6.14321H20.9753L21.5049 4.67621C21.9481 4.16172 22.4992 3.7512 23.1191 3.47387C23.739 3.19653 24.4123 3.05919 25.0913 3.0716H28.0044ZM33.2618 2.04815V5.11975C33.0569 5.11425 32.8617 5.03178 32.715 4.88877L32.2371 3.2559C32.3415 2.5568 32.7728 2.04815 33.2618 2.04815Z" fill="#FF680F"/>
</g>
<defs>
<clipPath id="clip0_86_32766">
<rect width="43" height="22.5247" fill="white" transform="translate(0.5)"/>
</clipPath>
</defs>
</svg>
